<svg clip-rule="evenodd" fill-rule="evenodd" stroke-linejoin="round" stroke-miterlimit="1.41421" viewBox="0 0 71 71" xmlns="http://www.w3.org/2000/svg" height="100px">
    <circle cx="35" cy="35" r="30" fill="white" />
    <g fill-rule="nonzero">
       <path d="m95.938 147.706c8.945 0 16.417 3 22.417 9s9 13.444 9 22.333-3 16.333-9 22.333-13.472 9-22.417 9c-8.944 0-16.402-2.986-22.375-8.958-5.972-5.972-8.958-13.43-8.958-22.375 0-8.889 2.972-16.333 8.917-22.333 5.944-6 13.416-9 22.416-9zm-21.75 31.333c0 6.222 2.111 11.5 6.334 15.833 4.222 4.334 9.361 6.5 15.416 6.5 6.111 0 11.278-2.138 15.5-6.416 4.223-4.278 6.334-9.584 6.334-15.917 0-6.222-2.111-11.5-6.334-15.833-4.222-4.334-9.389-6.5-15.5-6.5s-11.264 2.153-15.458 6.458c-4.194 4.306-6.292 9.597-6.292 15.875z" transform="matrix(1.11749 0 0 1.11749 -71.60878 -164.34418)"/>
    </g>
    <path d="m67.795 88.342c.599 1.614.926 3.36.926 5.181 0 8.232-6.683 14.914-14.914 14.914s-14.914-6.682-14.914-14.914c0-8.231 6.683-14.914 14.914-14.914 1.821 0 3.567.327 5.181.926-1.854 1.125-3.094 3.163-3.094 5.488 0 3.54 2.874 6.413 6.414 6.413 2.325 0 4.362-1.239 5.487-3.094z" fill="#6c04f4" transform="translate(-19.16058 -57.39018)"/>
</svg>
